<svg width="16" height="16" viewBox="0 0 16 16" fill="none" xmlns="http://www.w3.org/2000/svg">
<path fill-rule="evenodd" clip-rule="evenodd" d="M10.7505 12.1093C9.62809 12.9499 8.23415 13.4478 6.72392 13.4478C3.0104 13.4478 0 10.4374 0 6.72392C0 3.0104 3.0104 0 6.72392 0C10.4374 0 13.4478 3.0104 13.4478 6.72392C13.4478 8.23433 12.9498 9.62843 12.109 10.751L15.7189 14.3608C16.094 14.7359 16.094 15.3441 15.7189 15.7192C15.3437 16.0943 14.7355 16.0943 14.3604 15.7192L10.7505 12.1093ZM11.4478 6.72392C11.4478 9.33287 9.33287 11.4478 6.72392 11.4478C4.11497 11.4478 2 9.33287 2 6.72392C2 4.11497 4.11497 2 6.72392 2C9.33287 2 11.4478 4.11497 11.4478 6.72392Z" fill="#2823FB"/>
</svg>
